<svg xmlns="http://www.w3.org/2000/svg" width="200" height="200" viewBox="0 0 200 200">
  <rect width="200" height="200" rx="16" fill="#EDE7F6" stroke="#D1C4E9" stroke-width="1"/>
  <!-- Cloud shape -->
  <ellipse cx="100" cy="65" rx="35" ry="22" fill="#FFFFFF" stroke="#B39DDB" stroke-width="2"/>
  <ellipse cx="75" cy="72" rx="20" ry="15" fill="#FFFFFF" stroke="none"/>
  <ellipse cx="125" cy="72" rx="20" ry="15" fill="#FFFFFF" stroke="none"/>
  <ellipse cx="100" cy="75" rx="38" ry="14" fill="#FFFFFF" stroke="#B39DDB" stroke-width="2"/>
  <!-- Cloud top outline fix -->
  <ellipse cx="100" cy="65" rx="35" ry="22" fill="#FFFFFF" stroke="#B39DDB" stroke-width="2"/>
  <rect x="65" y="65" width="70" height="18" fill="#FFFFFF"/>
  <ellipse cx="100" cy="78" rx="38" ry="10" fill="#FFFFFF" stroke="#B39DDB" stroke-width="2"/>
  <!-- Infinity/unlimited symbol inside cloud -->
  <path d="M82 68 Q82 58 92 58 Q100 58 100 68 Q100 58 108 58 Q118 58 118 68 Q118 78 108 78 Q100 78 100 68 Q100 78 92 78 Q82 78 82 68 Z" fill="none" stroke="#7E57C2" stroke-width="2.5"/>
  <!-- Play button below cloud -->
  <circle cx="100" cy="108" r="12" fill="#7E57C2" opacity="0.15"/>
  <polygon points="95,102 95,114 108,108" fill="#7E57C2"/>
  <!-- Label -->
  <text x="100" y="142" font-family="system-ui, sans-serif" font-size="11" font-weight="600" fill="#5E35B1" text-anchor="middle">Cam Unlimited</text>
  <text x="100" y="157" font-family="system-ui, sans-serif" font-size="9" fill="#9575CD" text-anchor="middle">Cloud Storage Plan</text>
  <text x="100" y="172" font-family="system-ui, sans-serif" font-size="8" fill="#B39DDB" text-anchor="middle">$9.99/mo</text>
</svg>
